<mxfile host="app.diagrams.net" agent="Mozilla/5.0 (X11; Linux x86_64) AppleWebKit/537.36 (KHTML, like Gecko) Chrome/136.0.0.0 Safari/537.36" version="27.1.5">
  <diagram name="Page-1" id="JNd1bpoNFcMxP8eTp1bo">
    <mxGraphModel dx="544" dy="304" grid="1" gridSize="10" guides="1" tooltips="1" connect="1" arrows="1" fold="1" page="1" pageScale="1" pageWidth="827" pageHeight="1169" math="0" shadow="0">
      <root>
        <mxCell id="0" />
        <mxCell id="1" parent="0" />
        <mxCell id="zLQOwcotstx5ZkCRBeIc-1" value="&lt;font style=&quot;font-size: 14px;&quot;&gt;(ps&lt;sub style=&quot;&quot;&gt;1&lt;/sub&gt;, tac&lt;sub style=&quot;&quot;&gt;1&lt;/sub&gt;)&lt;/font&gt;" style="rounded=1;whiteSpace=wrap;html=1;" vertex="1" parent="1">
          <mxGeometry x="50" y="70" width="80" height="30" as="geometry" />
        </mxCell>
        <mxCell id="zLQOwcotstx5ZkCRBeIc-3" value="&lt;font style=&quot;font-size: 14px;&quot;&gt;(ps&lt;sub style=&quot;&quot;&gt;2&lt;/sub&gt;, tac&lt;sub style=&quot;&quot;&gt;2&lt;/sub&gt;)&lt;/font&gt;" style="rounded=1;whiteSpace=wrap;html=1;" vertex="1" parent="1">
          <mxGeometry x="50" y="130" width="80" height="30" as="geometry" />
        </mxCell>
      </root>
    </mxGraphModel>
  </diagram>
</mxfile>
